# xmcd CD database file
#
# Track frame offsets:
#	150
#	9120
#	23781
#	50731
#	79398
#	100513
#	120370
#
# Disc length: 1992 seconds
#
# Revision: 2
# Processed by: cddbd v1.5.2PL0 Copyright (c) Steve Scherf et al.
# Submitted via: CDex 1.51
#
DISCID=4507c607
DTITLE=Nina Simone - Let It Be Me
DYEAR=2005
DGENRE=Jazz
TTITLE0=Stars (Jesse)
TTITLE1=That's All I Want From You
TTITLE2=Ain't Got No - I Got Life
TTITLE3=Be My Husband
TTITLE4=See Line Woman
TTITLE5=Let It Be Me
TTITLE6=Mississippi Goddam
EXTD=YEAR: 2005
EXTT0=
EXTT1=
EXTT2=
EXTT3=
EXTT4=
EXTT5=
EXTT6=
PLAYORDER=
